<svg width="12" height="7" viewBox="0 0 12 7" fill="none" xmlns="http://www.w3.org/2000/svg">
<path d="M6.71997 6.78001C6.57946 6.9207 6.38882 6.99984 6.18997 7.00001H5.80997C5.61156 6.99771 5.4217 6.9189 5.27997 6.78001L0.149974 1.64001C0.055318 1.54613 0.0020752 1.41833 0.0020752 1.28501C0.0020752 1.15169 0.055318 1.0239 0.149974 0.930012L0.859974 0.220012C0.952138 0.125948 1.07828 0.0729408 1.20997 0.0729408C1.34166 0.0729408 1.46781 0.125948 1.55997 0.220012L5.99997 4.67001L10.44 0.220012C10.5339 0.125356 10.6617 0.072113 10.795 0.072113C10.9283 0.072113 11.0561 0.125356 11.15 0.220012L11.85 0.930012C11.9446 1.0239 11.9979 1.15169 11.9979 1.28501C11.9979 1.41833 11.9446 1.54613 11.85 1.64001L6.71997 6.78001Z" fill="#8C8C8C"/>
</svg>
