<svg width="24" height="24" viewBox="0 0 24 24" fill="none" xmlns="http://www.w3.org/2000/svg">
<path d="M12.5001 22H11.5001C11.224 22 11.0001 21.7761 11.0001 21.5V5.33L6.5601 9.78C6.46621 9.87466 6.33842 9.9279 6.2051 9.9279C6.07178 9.9279 5.94398 9.87466 5.8501 9.78L5.1501 9.07C5.05544 8.97612 5.0022 8.84832 5.0022 8.715C5.0022 8.58168 5.05544 8.45388 5.1501 8.36L11.2801 2.22C11.4206 2.07931 11.6113 2.00018 11.8101 2H12.1901C12.3885 2.0023 12.5784 2.08112 12.7201 2.22L18.8501 8.36C18.9448 8.45388 18.998 8.58168 18.998 8.715C18.998 8.84832 18.9448 8.97612 18.8501 9.07L18.1401 9.78C18.0479 9.87406 17.9218 9.92707 17.7901 9.92707C17.6584 9.92707 17.5323 9.87406 17.4401 9.78L13.0001 5.33V21.5C13.0001 21.7761 12.7762 22 12.5001 22Z" fill="white"/>
</svg>
