<svg width="20" height="20" viewBox="0 0 20 20" fill="none" xmlns="http://www.w3.org/2000/svg">
<path fill-rule="evenodd" clip-rule="evenodd" d="M10 0C4.47715 0 0 4.47715 0 10C0 15.5228 4.47715 20 10 20C15.5228 20 20 15.5228 20 10C20 7.34784 18.9464 4.8043 17.0711 2.92893C15.1957 1.05357 12.6522 0 10 0ZM10 18C5.58172 18 2 14.4183 2 10C2 5.58172 5.58172 2 10 2C14.4183 2 18 5.58172 18 10C18 12.1217 17.1571 14.1566 15.6569 15.6569C14.1566 17.1571 12.1217 18 10 18ZM10.19 4C10.3884 4.0023 10.5783 4.08112 10.72 4.22L13.85 7.35C13.9447 7.44388 13.9979 7.57168 13.9979 7.705C13.9979 7.83832 13.9447 7.96612 13.85 8.06L13.14 8.77C13.0478 8.86406 12.9217 8.91707 12.79 8.91707C12.6583 8.91707 12.5322 8.86406 12.44 8.77L11 7.33V15.5C11 15.7761 10.7761 16 10.5 16H9.5C9.22386 16 9 15.7761 9 15.5V7.33L7.56 8.78C7.46612 8.87466 7.33832 8.9279 7.205 8.9279C7.07168 8.9279 6.94388 8.87466 6.85 8.78L6.15 8.07C6.05534 7.97612 6.0021 7.84832 6.0021 7.715C6.0021 7.58168 6.05534 7.45388 6.15 7.36L9.28 4.22C9.42052 4.07931 9.61115 4.00017 9.81 4H10.19Z" fill="#2B63C0"/>
</svg>
