<svg width="20" height="20" viewBox="0 0 20 20" fill="none" xmlns="http://www.w3.org/2000/svg">
<path fill-rule="evenodd" clip-rule="evenodd" d="M9.99999 13.3346C9.8895 13.3346 9.78393 13.2889 9.70832 13.2083L4.88332 8.38333C4.80444 8.3051 4.76007 8.1986 4.76007 8.0875C4.76007 7.9764 4.80444 7.8699 4.88332 7.79167L5.04999 7.625C5.12839 7.54362 5.237 7.49836 5.34999 7.5H7.49999V2.91667C7.49999 2.68655 7.68654 2.5 7.91666 2.5H12.0833C12.3134 2.5 12.5 2.68655 12.5 2.91667V7.5H14.65C14.763 7.49836 14.8716 7.54362 14.95 7.625L15.1167 7.79167C15.1955 7.8699 15.2399 7.9764 15.2399 8.0875C15.2399 8.1986 15.1955 8.3051 15.1167 8.38333L10.2917 13.2083C10.216 13.2889 10.1105 13.3346 9.99999 13.3346ZM15.8333 16.25V15.4167C15.8333 15.1865 15.6468 15 15.4167 15H4.58332C4.3532 15 4.16666 15.1865 4.16666 15.4167V16.25C4.16666 16.4801 4.3532 16.6667 4.58332 16.6667H15.4167C15.6468 16.6667 15.8333 16.4801 15.8333 16.25Z" fill="#333333"/>
</svg>
