<svg width="20" height="20" viewBox="0 0 20 20" fill="none" xmlns="http://www.w3.org/2000/svg">
<path fill-rule="evenodd" clip-rule="evenodd" d="M9.99996 1.66666C5.39759 1.66666 1.66663 5.39762 1.66663 9.99999C1.66663 14.6024 5.39759 18.3333 9.99996 18.3333C14.6023 18.3333 18.3333 14.6024 18.3333 9.99999C18.3333 7.78985 17.4553 5.67024 15.8925 4.10743C14.3297 2.54463 12.2101 1.66666 9.99996 1.66666ZM9.99996 16.6667C6.31806 16.6667 3.33329 13.6819 3.33329 9.99999C3.33329 6.31809 6.31806 3.33332 9.99996 3.33332C13.6819 3.33332 16.6666 6.31809 16.6666 9.99999C16.6666 11.7681 15.9642 13.4638 14.714 14.714C13.4638 15.9643 11.7681 16.6667 9.99996 16.6667ZM12.1333 7.42499L12.575 7.86666C12.6555 7.94227 12.7012 8.04784 12.7012 8.15832C12.7012 8.26881 12.6555 8.37438 12.575 8.44999L11.0333 9.99999L12.575 11.55C12.6555 11.6256 12.7012 11.7312 12.7012 11.8417C12.7012 11.9521 12.6555 12.0577 12.575 12.1333L12.1333 12.575C12.0577 12.6556 11.9521 12.7013 11.8416 12.7013C11.7311 12.7013 11.6256 12.6556 11.55 12.575L9.99996 11.0333L8.44996 12.575C8.37435 12.6556 8.26878 12.7013 8.15829 12.7013C8.0478 12.7013 7.94224 12.6556 7.86663 12.575L7.42496 12.1333C7.3444 12.0577 7.29869 11.9521 7.29869 11.8417C7.29869 11.7312 7.3444 11.6256 7.42496 11.55L8.96663 9.99999L7.42496 8.44999C7.3444 8.37438 7.29869 8.26881 7.29869 8.15832C7.29869 8.04784 7.3444 7.94227 7.42496 7.86666L7.86663 7.42499C7.94224 7.34443 8.0478 7.29872 8.15829 7.29872C8.26878 7.29872 8.37435 7.34443 8.44996 7.42499L9.99996 8.96666L11.55 7.42499C11.6256 7.34443 11.7311 7.29872 11.8416 7.29872C11.9521 7.29872 12.0577 7.34443 12.1333 7.42499Z" fill="white"/>
</svg>
