<svg width="20" height="20" viewBox="0 0 20 20" fill="none" xmlns="http://www.w3.org/2000/svg">
<path fill-rule="evenodd" clip-rule="evenodd" d="M10.0001 1.66666C5.39771 1.66666 1.66675 5.39762 1.66675 9.99999C1.66675 14.6024 5.39771 18.3333 10.0001 18.3333C14.6025 18.3333 18.3334 14.6024 18.3334 9.99999C18.3334 7.78985 17.4554 5.67024 15.8926 4.10743C14.3298 2.54463 12.2102 1.66666 10.0001 1.66666ZM10.0001 16.6667C6.31818 16.6667 3.33341 13.6819 3.33341 9.99999C3.33341 6.31809 6.31818 3.33332 10.0001 3.33332C13.682 3.33332 16.6667 6.31809 16.6667 9.99999C16.6667 11.7681 15.9644 13.4638 14.7141 14.714C13.4639 15.9643 11.7682 16.6667 10.0001 16.6667ZM12.6001 7.07499C12.7621 6.91618 13.0214 6.91618 13.1834 7.07499L13.6001 7.51666C13.679 7.59489 13.7233 7.70139 13.7233 7.81249C13.7233 7.92359 13.679 8.03009 13.6001 8.10832L8.91675 12.7917C8.84114 12.8722 8.73557 12.9179 8.62508 12.9179C8.51459 12.9179 8.40903 12.8722 8.33342 12.7917L6.37508 10.8167C6.2962 10.7384 6.25183 10.6319 6.25183 10.5208C6.25183 10.4097 6.2962 10.3032 6.37508 10.225L6.81675 9.78332C6.89236 9.70276 6.99793 9.65706 7.10842 9.65706C7.2189 9.65706 7.32447 9.70276 7.40008 9.78332L8.65008 11.025L12.6001 7.07499Z" fill="white"/>
</svg>
